HIERARCHY
ROOT ui
{
	 OFFSET 0 0 0
	 CHANNELS 3 XPosition YPosition Z Position
	 EndSite
	 {
	 OFFSET 0 -1 0
	 }
}
ROOT li
{
	 OFFSET 0 0 0
	 CHANNELS 3 XPosition YPosition Z Position
	 EndSite
	 {
	 OFFSET 0 -1 0
	 }
}
ROOT ul
{
	 OFFSET 0 0 0
	 CHANNELS 3 XPosition YPosition Z Position
	 EndSite
	 {
	 OFFSET 0 -1 0
	 }
}
ROOT ll
{
	 OFFSET 0 0 0
	 CHANNELS 3 XPosition YPosition Z Position
	 EndSite
	 {
	 OFFSET 0 -1 0
	 }
}
ROOT tt
{
	 OFFSET 0 0 0
	 CHANNELS 3 XPosition YPosition Z Position
	 EndSite
	 {
	 OFFSET 0 -1 0
	 }
}
ROOT tb
{
	 OFFSET 0 0 0
	 CHANNELS 3 XPosition YPosition Z Position
	 EndSite
	 {
	 OFFSET 0 -1 0
	 }
}
ROOT td
{
	 OFFSET 0 0 0
	 CHANNELS 3 XPosition YPosition Z Position
	 EndSite
	 {
	 OFFSET 0 -1 0
	 }
}
ROOT v
{
	 OFFSET 0 0 0
	 CHANNELS 3 XPosition YPosition Z Position
	 EndSite
	 {
	 OFFSET 0 -1 0
	 }
}
ROOT bn
{
	 OFFSET 0 0 0
	 CHANNELS 3 XPosition YPosition Z Position
	 EndSite
	 {
	 OFFSET 0 -1 0
	 }
}
MOTION
Frames: 21
Frame Time: 0.002
0.0037998669147491456	2.9059699177742E-4	0		0.43803054809570313	-2.31948828125	0		-1.0956016845703125	-0.018210254669189452	0		-0.7422417602539062	-2.328774169921875	0		1.10765966796875	-0.550339599609375	0		2.749800048828125	-0.08693473052978516	0		4.56558251953125	0.08483101654052734	0		5.63181103515625	0.15434425354003906	0		-0.32025933837890624	5.86181494140625	0		
0.007311254024505615	0.00307083797454834	0		0.49295782470703126	-2.322369140625	0		-1.10798095703125	-0.008428860664367675	0		-0.749128173828125	-2.3189912109375	0		1.1082445068359374	-0.5502788696289063	0		2.750285888671875	-0.08652327728271485	0		4.5729423828125	0.07952737426757812	0		5.629228515625	0.1423436737060547	0		-0.3210439147949219	5.8615703125	0		
-0.015290855407714844	-0.0037692980766296388	0		0.4679996032714844	-2.3200595703125	0		-1.10748095703125	-0.00885071563720703	0		-0.75014794921875	-2.3213046875	0		1.105805908203125	-0.554168212890625	0		2.750802978515625	-0.08609500885009766	0		4.5665107421875	0.08645862579345703	0		5.6325419921875	0.15787677001953124	0		-0.32280804443359373	5.8633359375	0		
0.0052860498428344725	-2.4026300013065338E-4	0		0.49296435546875	-2.32547900390625	0		-1.1110152587890625	-0.013220399856567382	0		-0.7610213012695313	-2.315480712890625	0		1.10340771484375	-0.5570579223632812	0		2.74644384765625	-0.07858953857421876	0		4.57392529296875	0.0811988296508789	0		5.63000146484375	0.1459598388671875	0		-0.45691357421875	5.8419951171875	0		
-0.01917543411254883	-6.865700334310531E-5	0		0.44209445190429686	-2.319817626953125	0		-1.110476318359375	-0.013650826454162598	0		-0.750083251953125	-2.323973388671875	0		1.1040677490234374	-0.5569947509765625	0		2.741814208984375	-0.09108826446533203	0		4.5724150390625	0.08006392669677734	0		5.63680419921875	0.14409153747558595	0		-0.4566938781738281	5.8406962890625	0		
0.011297408103942872	-0.005675218105316162	0		0.47114599609375	-2.320295654296875	0		-1.0930130615234375	-0.020315895080566405	0		-0.7350850830078125	-2.328517822265625	0		1.1138873291015625	-0.5460643310546875	0		2.775584716796875	-0.07613272857666016	0		4.58294189453125	0.08074246978759765	0		5.64013818359375	0.157881103515625	0		-0.4564440612792969	5.839396484375	0		
0.009957873344421386	0.002165914058685303	0		0.4782868347167969	-2.313465576171875	0		-1.0843641357421876	-0.013847713470458984	0		-0.7419000854492187	-2.31875439453125	0		1.136537841796875	-0.5473153076171875	0		2.73804443359375	-0.08320606994628907	0		4.56369482421875	0.09780673217773438	0		5.62997998046875	0.18244529724121095	0		-0.3248403015136719	5.86030078125	0		
0.007465167045593262	-9.808160066604615E-4	0		0.49918954467773435	-2.3228251953125	0		-1.1047708740234374	-0.010978287696838378	0		-0.7428997802734375	-2.32106982421875	0		1.11216064453125	-0.5499324951171874	0		2.748689697265625	-0.07696530151367187	0		4.57603271484375	0.08439955139160156	0		5.6316416015625	0.15290591430664063	0		-0.4607607116699219	5.84186669921875	0		
-0.012047062873840332	-0.004903223991394043	0		0.4721914978027344	-2.3225439453125	0		-1.104229736328125	-0.01138739013671875	0		-0.72088916015625	-2.3206865234375	0		1.128700927734375	-0.558114013671875	0		2.739164794921875	-0.08247695922851563	0		4.56166259765625	0.09331541442871094	0		5.618533203125	0.16182676696777343	0		-0.4603933410644531	5.840572265625	0		
-0.004393784999847412	0.004812655925750732	0		0.4991113586425781	-2.325984375	0		-1.1077576904296875	-0.015732840538024904	0		-0.7548858032226563	-2.3175537109375	0		1.1103824462890626	-0.553841064453125	0		2.76085791015625	-0.07042411041259766	0		4.577060546875	0.08579342651367187	0		5.62823193359375	0.1699250030517578	0		-0.4609765319824219	5.8402958984375	0		
-0.01597334384918213	-0.0012195010185241698	0		0.4501356506347656	-2.317435791015625	0		-1.097270751953125	-0.017248418807983397	0		-0.7301276245117188	-2.330185791015625	0		1.1140313720703126	-0.5498671264648437	0		2.743266357421875	-0.07788053131103516	0		4.57062109375	0.09252079772949219	0		5.63573583984375	0.17109652709960937	0		-0.3272703552246094	5.85929248046875	0		
0.012531393051147461	0.0012373729944229125	0		0.47898602294921877	-2.31889892578125	0		-1.098684326171875	-0.008594675064086914	0		-0.7720908203125	-2.316946533203125	0		1.1176448974609374	-0.5458980712890625	0		2.76982275390625	-0.0719259033203125	0		4.58107275390625	0.09299284362792969	0		5.63608544921875	0.17241676330566405	0		-0.32780517578125	5.85905322265625	0		
-0.024942035675048827	0.008539020538330078	0		0.5037460327148438	-2.323301025390625	0		-1.1022972412109375	-0.012900642395019531	0		-0.7383443603515625	-2.322665283203125	0		1.1151190185546875	-0.5498566284179688	0		2.7632578125	-0.07256600952148437	0		4.5814931640625	0.09355872344970703	0		5.629296875	0.17733885192871093	0		-0.46356222534179686	5.8405224609375	0		
0.010330002784729004	-0.0020719730854034425	0		0.5024656982421875	-2.326371337890625	0		-1.1018948974609375	-0.01324246120452881	0		-0.7396123657226562	-2.324926025390625	0		1.10359228515625	-0.550708984375	0		2.751633056640625	-0.0751653823852539	0		4.5788046875	0.08812659454345703	0		5.6367109375	0.1748292999267578	0		-0.46405776977539065	5.84027880859375	0		
-0.0143035888671875	-0.0019306529760360718	0		0.47720458984375	-2.32314697265625	0		-1.10152880859375	-0.01356897735595703	0		-0.7409369506835938	-2.327175537109375	0		1.1129984130859376	-0.5538274536132812	0		2.744984130859375	-0.07684937286376953	0		4.5771318359375	0.08664493560791016	0		5.6404619140625	0.15851512145996094	0		-0.46256146240234375	5.83801953125	0		
-0.013974720001220704	-0.002095125913619995	0		0.4539111022949219	-2.317953369140625	0		-1.1592669677734375	-0.019175613403320312	0		-0.7613030395507813	-2.328183349609375	0		1.1223773193359374	-0.5559481201171875	0		2.7834296875	-0.06810183715820313	0		4.57744873046875	0.08710372161865235	0		5.64014306640625	0.18896202087402345	0		-0.32877996826171874	5.8571640625	0		
-0.005691444873809815	-0.003350703001022339	0		0.5125223999023437	-2.316750732421875	0		-1.0928172607421875	-0.0072759418487548825	0		-0.7237249755859375	-2.329883056640625	0		1.1198642578125	-0.5459271850585937	0		2.749688232421875	-0.07149504852294922	0		4.57891357421875	0.10251714324951172	0		5.6374521484375	0.17788478088378906	0		-0.3302197570800781	5.8579765625	0		
0.004742525100708008	0.010376162528991699	0		0.5069841003417969	-2.323769775390625	0		-1.100631591796875	-0.01446327018737793	0		-0.745010498046875	-2.315861083984375	0		1.1171497802734376	-0.5499096069335937	0		2.75698779296875	-0.06940206146240234	0		4.580013671875	0.08990140533447266	0		5.6376533203125	0.17876499938964843	0		-0.46588137817382813	5.8393935546875	0		
0.011833165168762207	-0.0028518459796905518	0		0.5054530029296875	-2.32683642578125	0		-1.1003843994140625	-0.014732583045959473	0		-0.7465306396484375	-2.318067138671875	0		1.1113743896484376	-0.5568609619140625	0		2.762158203125	-0.07630071258544922	0		4.58024951171875	0.09026406860351563	0		5.6307236328125	0.18323876953125	0		-0.46628536987304686	5.83919482421875	0		
0.017003570556640625	-0.008050280570983887	0		0.453982666015625	-2.321318359375	0		-1.1001539306640624	-0.014986987113952637	0		-0.7262523803710937	-2.334517822265625	0		1.13669384765625	-0.5541810302734375	0		2.752547607421875	-0.0630428237915039	0		4.5686337890625	0.10473178100585938	0		5.6244599609375	0.18069569396972657	0		-0.4656672058105469	5.83799365234375	0		
0.002394347906112671	0.006988026142120361	0		0.5083889465332031	-2.324038330078125	0		-1.0870543212890624	-0.025376766204833985	0		-0.7337014770507813	-2.32463037109375	0		1.1210548095703126	-0.546025390625	0		2.7656748046875	-0.07107071685791015	0		4.5837451171875	0.09685133361816406	0		5.63817236328125	0.180974365234375	0		-0.46600076293945314	5.8378134765625	0		
